<svg width="900" height="600" xmlns="http://www.w3.org/2000/svg" style="background: transparent;">
  <defs>
    <style>
      .title { font: bold 20px sans-serif; fill: #e1e5e9; text-anchor: middle; }
      .subtitle { font: 16px sans-serif; fill: #c9d1d9; text-anchor: middle; }
      .label { font: 14px sans-serif; fill: #c9d1d9; }
      .small-label { font: 12px sans-serif; fill: #8b949e; }
      .value-label { font: 12px sans-serif; fill: #f0f6fc; text-anchor: middle; }
      .chart-bg { fill: #161b22; stroke: #30363d; stroke-width: 1; }
      .axis { stroke: #30363d; stroke-width: 2; }
      .bar-basic { fill: #58a6ff; }
      .bar-enhanced { fill: #a5a5ff; }
      .bar-queue { fill: #56d364; }
      .grid { stroke: #21262d; stroke-width: 1; opacity: 0.5; }
    </style>
  </defs>
  
  <!-- Title -->
  <text x="450" y="30" class="title">Redis Transport Performance Comparison</text>
  
  <!-- Latency Chart -->
  <rect x="50" y="60" width="380" height="200" class="chart-bg"/>
  <text x="240" y="85" class="subtitle">Latency (Lower is Better)</text>
  
  <!-- Y-axis labels for latency -->
  <text x="45" y="110" class="small-label">2ms</text>
  <text x="45" y="140" class="small-label">1.5ms</text>
  <text x="45" y="170" class="small-label">1ms</text>
  <text x="45" y="200" class="small-label">0.5ms</text>
  <text x="45" y="230" class="small-label">0ms</text>
  
  <!-- Grid lines -->
  <line x1="60" y1="110" x2="420" y2="110" class="grid"/>
  <line x1="60" y1="140" x2="420" y2="140" class="grid"/>
  <line x1="60" y1="170" x2="420" y2="170" class="grid"/>
  <line x1="60" y1="200" x2="420" y2="200" class="grid"/>
  
  <!-- Axes -->
  <line x1="60" y1="100" x2="60" y2="240" class="axis"/>
  <line x1="60" y1="240" x2="420" y2="240" class="axis"/>
  
  <!-- Latency Bars -->
  <rect x="80" y="200" width="60" height="40" class="bar-basic"/>
  <text x="110" y="255" class="value-label">Basic</text>
  <text x="110" y="270" class="small-label">1.0ms</text>
  
  <rect x="180" y="188" width="60" height="52" class="bar-enhanced"/>
  <text x="210" y="255" class="value-label">Enhanced</text>
  <text x="210" y="270" class="small-label">1.2ms</text>
  
  <rect x="280" y="220" width="60" height="20" class="bar-queue"/>
  <text x="310" y="255" class="value-label">Queue</text>
  <text x="310" y="270" class="small-label">0.5ms</text>
  
  <!-- Throughput Chart -->
  <rect x="470" y="60" width="380" height="200" class="chart-bg"/>
  <text x="660" y="85" class="subtitle">Throughput (Higher is Better)</text>
  
  <!-- Y-axis labels for throughput -->
  <text x="465" y="110" class="small-label">120K</text>
  <text x="465" y="140" class="small-label">100K</text>
  <text x="465" y="170" class="small-label">80K</text>
  <text x="465" y="200" class="small-label">60K</text>
  <text x="465" y="230" class="small-label">40K</text>
  
  <!-- Grid lines -->
  <line x1="480" y1="110" x2="840" y2="110" class="grid"/>
  <line x1="480" y1="140" x2="840" y2="140" class="grid"/>
  <line x1="480" y1="170" x2="840" y2="170" class="grid"/>
  <line x1="480" y1="200" x2="840" y2="200" class="grid"/>
  
  <!-- Axes -->
  <line x1="480" y1="100" x2="480" y2="240" class="axis"/>
  <line x1="480" y1="240" x2="840" y2="240" class="axis"/>
  
  <!-- Throughput Bars -->
  <rect x="500" y="160" width="60" height="80" class="bar-basic"/>
  <text x="530" y="255" class="value-label">Basic</text>
  <text x="530" y="270" class="small-label">80K msg/s</text>
  
  <rect x="600" y="165" width="60" height="75" class="bar-enhanced"/>
  <text x="630" y="255" class="value-label">Enhanced</text>
  <text x="630" y="270" class="small-label">75K msg/s</text>
  
  <rect x="700" y="120" width="60" height="120" class="bar-queue"/>
  <text x="730" y="255" class="value-label">Queue</text>
  <text x="730" y="270" class="small-label">100K+ msg/s</text>
  
  <!-- Memory Usage Chart -->
  <rect x="50" y="300" width="380" height="200" class="chart-bg"/>
  <text x="240" y="325" class="subtitle">Memory per Consumer (Lower is Better)</text>
  
  <!-- Y-axis labels for memory -->
  <text x="45" y="350" class="small-label">10MB</text>
  <text x="45" y="380" class="small-label">8MB</text>
  <text x="45" y="410" class="small-label">6MB</text>
  <text x="45" y="440" class="small-label">4MB</text>
  <text x="45" y="470" class="small-label">2MB</text>
  
  <!-- Grid lines -->
  <line x1="60" y1="350" x2="420" y2="350" class="grid"/>
  <line x1="60" y1="380" x2="420" y2="380" class="grid"/>
  <line x1="60" y1="410" x2="420" y2="410" class="grid"/>
  <line x1="60" y1="440" x2="420" y2="440" class="grid"/>
  
  <!-- Axes -->
  <line x1="60" y1="340" x2="60" y2="480" class="axis"/>
  <line x1="60" y1="480" x2="420" y2="480" class="axis"/>
  
  <!-- Memory Bars -->
  <rect x="80" y="460" width="60" height="20" class="bar-basic"/>
  <text x="110" y="495" class="value-label">Basic</text>
  <text x="110" y="510" class="small-label">~1MB</text>
  
  <rect x="180" y="440" width="60" height="40" class="bar-enhanced"/>
  <text x="210" y="495" class="value-label">Enhanced</text>
  <text x="210" y="510" class="small-label">~2MB</text>
  
  <rect x="280" y="455" width="60" height="25" class="bar-queue"/>
  <text x="310" y="495" class="value-label">Queue</text>
  <text x="310" y="510" class="small-label">~1.5MB</text>
  
  <!-- Concurrent Consumers Chart -->
  <rect x="470" y="300" width="380" height="200" class="chart-bg"/>
  <text x="660" y="325" class="subtitle">Max Concurrent Consumers</text>
  
  <!-- Y-axis labels for consumers -->
  <text x="465" y="350" class="small-label">1200</text>
  <text x="465" y="380" class="small-label">1000</text>
  <text x="465" y="410" class="small-label">800</text>
  <text x="465" y="440" class="small-label">600</text>
  <text x="465" y="470" class="small-label">400</text>
  
  <!-- Grid lines -->
  <line x1="480" y1="350" x2="840" y2="350" class="grid"/>
  <line x1="480" y1="380" x2="840" y2="380" class="grid"/>
  <line x1="480" y1="410" x2="840" y2="410" class="grid"/>
  <line x1="480" y1="440" x2="840" y2="440" class="grid"/>
  
  <!-- Axes -->
  <line x1="480" y1="340" x2="480" y2="480" class="axis"/>
  <line x1="480" y1="480" x2="840" y2="480" class="axis"/>
  
  <!-- Consumer Bars -->
  <rect x="500" y="440" width="60" height="40" class="bar-basic"/>
  <text x="530" y="495" class="value-label">Basic</text>
  <text x="530" y="510" class="small-label">~200</text>
  
  <rect x="600" y="435" width="60" height="45" class="bar-enhanced"/>
  <text x="630" y="495" class="value-label">Enhanced</text>
  <text x="630" y="510" class="small-label">~250</text>
  
  <rect x="700" y="360" width="60" height="120" class="bar-queue"/>
  <text x="730" y="495" class="value-label">Queue</text>
  <text x="730" y="510" class="small-label">~1000+</text>
  
  <!-- Summary -->
  <text x="450" y="550" class="subtitle">Performance Summary</text>
  <text x="220" y="575" class="small-label">🏆 Queue Transport leads in throughput and concurrency</text>
  <text x="680" y="575" class="small-label">🏆 Basic Transport has lowest latency for simple cases</text>
</svg>